<svg xmlns="http://www.w3.org/2000/svg" width="24" height="24" viewBox="0 0 24 24">
  <path fill="#4285F4" d="M23.49 12.27c0-.82-.07-1.64-.21-2.43H12v4.6h6.5a5.56 5.56 0 0 1-2.4 3.65v3.03h3.86c2.26-2.08 3.53-5.14 3.53-8.85z"/>
  <path fill="#34A853" d="M12 24c3.24 0 5.95-1.07 7.93-2.91l-3.86-3.03c-1.08.73-2.46 1.17-4.07 1.17a7.06 7.06 0 0 1-6.69-4.91H1.3v3.09A12 12 0 0 0 12 24z"/>
  <path fill="#FBBC05" d="M5.31 14.32a7.13 7.13 0 0 1 0-4.64V6.59H1.3a12 12 0 0 0 0 10.82l4.01-3.09z"/>
  <path fill="#EA4335" d="M12 4.75c1.77 0 3.35.61 4.6 1.79l3.43-3.43A11.94 11.94 0 0 0 12 0 12 12 0 0 0 1.3 6.59l4.01 3.09A7.06 7.06 0 0 1 12 4.75z"/>
</svg>
